<svg width="1800" height="1000" viewBox="0 0 1800 1000" fill="none" xmlns="http://www.w3.org/2000/svg">
  <defs>
    <linearGradient id="bg" x1="0" y1="0" x2="1800" y2="1000">
      <stop offset="0" stop-color="#020617"/>
      <stop offset="0.44" stop-color="#07111f"/>
      <stop offset="1" stop-color="#111827"/>
    </linearGradient>
    <radialGradient id="spot" cx="50%" cy="42%" r="66%">
      <stop offset="0" stop-color="#1e3a8a" stop-opacity="0.34"/>
      <stop offset="0.52" stop-color="#0f172a" stop-opacity="0.13"/>
      <stop offset="1" stop-color="#020617" stop-opacity="0"/>
    </radialGradient>
    <linearGradient id="gold" x1="0" y1="0" x2="1" y2="1">
      <stop offset="0" stop-color="#fff7d6"/>
      <stop offset="0.36" stop-color="#d8b76a"/>
      <stop offset="0.72" stop-color="#a67c2e"/>
      <stop offset="1" stop-color="#6f4e13"/>
    </linearGradient>
    <linearGradient id="proof" x1="250" y1="500" x2="1550" y2="500">
      <stop offset="0" stop-color="#38bdf8"/>
      <stop offset="0.5" stop-color="#f8e7b0"/>
      <stop offset="1" stop-color="#22c55e"/>
    </linearGradient>
    <filter id="shadow" x="-30%" y="-30%" width="160%" height="160%">
      <feDropShadow dx="0" dy="22" stdDeviation="22" flood-color="#000000" flood-opacity="0.46"/>
    </filter>
    <filter id="glow" x="-40%" y="-40%" width="180%" height="180%">
      <feGaussianBlur stdDeviation="8" result="blur"/>
      <feMerge><feMergeNode in="blur"/><feMergeNode in="SourceGraphic"/></feMerge>
    </filter>
  </defs>

  <rect width="1800" height="1000" fill="url(#bg)"/>
  <rect width="1800" height="1000" fill="url(#spot)"/>
  <rect x="58" y="58" width="1684" height="884" rx="32" stroke="#243244" stroke-width="2"/>
  <rect x="92" y="92" width="1616" height="816" rx="24" stroke="#111827" stroke-width="2"/>

  <g opacity="0.15" stroke="#334155" stroke-width="1">
    <path d="M150 250H1650M150 375H1650M150 500H1650M150 625H1650M150 750H1650"/>
    <path d="M300 170V830M525 170V830M750 170V830M975 170V830M1200 170V830M1425 170V830"/>
  </g>

  <text x="130" y="135" font-family="Inter, Arial, sans-serif" font-size="46" fill="#f8fafc" font-weight="900" letter-spacing="1.1">ELYRIA CERTIFIED EXECUTION</text>
  <text x="130" y="176" font-family="Inter, Arial, sans-serif" font-size="19" fill="#94a3b8">Certification standard for consequence-bearing AI execution</text>
  <text x="130" y="207" font-family="Inter, Arial, sans-serif" font-size="13" fill="#64748b">15D standing geometry · certification levels · boundary proof · receipt/replay · fail-closed execution</text>

  <g transform="translate(1270 118)">
    <rect width="380" height="56" rx="16" fill="#020617" stroke="url(#gold)" stroke-width="1.6"/>
    <text x="190" y="35" text-anchor="middle" font-family="Inter, Arial, sans-serif" font-size="16" fill="#f8e7b0" font-weight="800">PROTECTED CERTIFICATION SURFACE</text>
  </g>

  <rect x="140" y="278" width="1520" height="456" rx="34" fill="#020617" stroke="#1f2937" stroke-width="2" filter="url(#shadow)"/>
  <rect x="166" y="304" width="1468" height="404" rx="26" fill="#08111f" stroke="#263244" stroke-width="1.5"/>

  <g filter="url(#shadow)">
    <rect x="210" y="390" width="350" height="210" rx="28" fill="#0f172a" stroke="#334155" stroke-width="2"/>
    <text x="385" y="448" text-anchor="middle" font-family="Inter, Arial, sans-serif" font-size="30" fill="#f8fafc" font-weight="900">AI ACTION</text>
    <text x="385" y="490" text-anchor="middle" font-family="Inter, Arial, sans-serif" font-size="16" fill="#94a3b8">requested · generated · routed</text>
    <rect x="275" y="535" width="220" height="40" rx="12" fill="#111827" stroke="#334155"/>
    <text x="385" y="561" text-anchor="middle" font-family="Inter, Arial, sans-serif" font-size="13" fill="#cbd5e1">not certified yet</text>
  </g>

  <path d="M560 495H710" stroke="url(#proof)" stroke-width="7" stroke-linecap="round" filter="url(#glow)"/>
  <path d="M1090 495H1240" stroke="url(#proof)" stroke-width="7" stroke-linecap="round" filter="url(#glow)"/>
  <path d="M680 478L710 495L680 512" stroke="#d8b76a" stroke-width="6" stroke-linecap="round" stroke-linejoin="round"/>
  <path d="M1210 478L1240 495L1210 512" stroke="#d8b76a" stroke-width="6" stroke-linecap="round" stroke-linejoin="round"/>

  <g filter="url(#shadow)">
    <rect x="710" y="330" width="380" height="330" rx="34" fill="#020617" stroke="url(#gold)" stroke-width="3"/>
    <text x="900" y="387" text-anchor="middle" font-family="Inter, Arial, sans-serif" font-size="28" fill="#f8e7b0" font-weight="900">CERTIFICATION</text>
    <text x="900" y="424" text-anchor="middle" font-family="Inter, Arial, sans-serif" font-size="28" fill="#f8fafc" font-weight="900">BOUNDARY</text>
    <text x="900" y="462" text-anchor="middle" font-family="Inter, Arial, sans-serif" font-size="14" fill="#cbd5e1">standing resolves before consequence binds</text>

    <g font-family="Inter, Arial, sans-serif" font-size="12" fill="#cbd5e1">
      <text x="755" y="510">authority · custody · evidence</text>
      <text x="755" y="536">state · policy · continuity</text>
      <text x="755" y="562">revocation · risk · capacity</text>
      <text x="755" y="588">failure behavior · receipt basis</text>
      <text x="755" y="614">replay basis · thermo-standing</text>
      <text x="755" y="640">corridor standing · standing decay</text>
    </g>
  </g>

  <g filter="url(#shadow)">
    <rect x="1240" y="390" width="350" height="210" rx="28" fill="#0f172a" stroke="#334155" stroke-width="2"/>
    <text x="1415" y="448" text-anchor="middle" font-family="Inter, Arial, sans-serif" font-size="30" fill="#f8fafc" font-weight="900">CERTIFIED</text>
    <text x="1415" y="487" text-anchor="middle" font-family="Inter, Arial, sans-serif" font-size="30" fill="#f8fafc" font-weight="900">OUTCOME</text>
    <text x="1415" y="528" text-anchor="middle" font-family="Inter, Arial, sans-serif" font-size="15" fill="#94a3b8">execute · refuse · halt · replay</text>
  </g>

  <g font-family="Inter, Arial, sans-serif" font-size="14" font-weight="800">
    <rect x="210" y="770" width="315" height="64" rx="16" fill="#0f172a" stroke="#334155"/>
    <text x="367" y="798" text-anchor="middle" fill="#f8fafc">C2 EVIDENCE</text>
    <text x="367" y="822" text-anchor="middle" fill="#94a3b8" font-size="12">evidence exists</text>

    <rect x="555" y="770" width="315" height="64" rx="16" fill="#0f172a" stroke="#334155"/>
    <text x="712" y="798" text-anchor="middle" fill="#f8fafc">C3 REPLAY</text>
    <text x="712" y="822" text-anchor="middle" fill="#94a3b8" font-size="12">decision can reproduce</text>

    <rect x="930" y="770" width="315" height="64" rx="16" fill="#0f172a" stroke="#334155"/>
    <text x="1087" y="798" text-anchor="middle" fill="#f8fafc">C4 BOUNDARY</text>
    <text x="1087" y="822" text-anchor="middle" fill="#94a3b8" font-size="12">consequence controlled</text>

    <rect x="1275" y="770" width="315" height="64" rx="16" fill="#0f172a" stroke="#334155"/>
    <text x="1432" y="798" text-anchor="middle" fill="#f8fafc">C5 CROSS-DOMAIN</text>
    <text x="1432" y="822" text-anchor="middle" fill="#94a3b8" font-size="12">boundary relation holds</text>
  </g>

  <rect x="140" y="875" width="1520" height="54" rx="18" fill="#020617" stroke="#263244"/>
  <text x="900" y="910" text-anchor="middle" font-family="Georgia, serif" font-size="25" fill="#f8e7b0">Certified execution means consequence was admissible when it bound.</text>
</svg>