<svg width="1600" height="900" viewBox="0 0 1600 900" fill="none" xmlns="http://www.w3.org/2000/svg">
  <defs>
    <radialGradient id="bg" cx="50%" cy="48%" r="70%">
      <stop offset="0%" stop-color="#1e1b4b" stop-opacity="1"/>
      <stop offset="38%" stop-color="#0f172a" stop-opacity="1"/>
      <stop offset="100%" stop-color="#020617" stop-opacity="1"/>
    </radialGradient>
    <radialGradient id="seal" cx="50%" cy="50%" r="52%">
      <stop offset="0%" stop-color="#fef3c7" stop-opacity="0.95"/>
      <stop offset="18%" stop-color="#f59e0b" stop-opacity="0.55"/>
      <stop offset="50%" stop-color="#22d3ee" stop-opacity="0.22"/>
      <stop offset="100%" stop-color="#020617" stop-opacity="0"/>
    </radialGradient>
    <linearGradient id="gold" x1="0" y1="0" x2="1" y2="1">
      <stop offset="0" stop-color="#fbbf24"/>
      <stop offset="0.5" stop-color="#fde68a"/>
      <stop offset="1" stop-color="#b45309"/>
    </linearGradient>
    <linearGradient id="blue" x1="0" y1="0" x2="1" y2="1">
      <stop offset="0" stop-color="#67e8f9"/>
      <stop offset="0.55" stop-color="#38bdf8"/>
      <stop offset="1" stop-color="#6366f1"/>
    </linearGradient>
    <filter id="glow" x="-60%" y="-60%" width="220%" height="220%"><feGaussianBlur stdDeviation="8" result="b"/><feMerge><feMergeNode in="b"/><feMergeNode in="SourceGraphic"/></feMerge></filter>
    <filter id="hardGlow" x="-80%" y="-80%" width="260%" height="260%"><feGaussianBlur stdDeviation="14" result="b"/><feMerge><feMergeNode in="b"/><feMergeNode in="SourceGraphic"/></feMerge></filter>
  </defs>

  <rect width="1600" height="900" fill="url(#bg)"/>
  <rect x="36" y="36" width="1528" height="828" rx="28" stroke="url(#gold)" stroke-width="2" opacity="0.75"/>
  <rect x="60" y="60" width="1480" height="780" rx="22" stroke="#334155" stroke-width="1.5" opacity="0.7"/>

  <g opacity="0.10" stroke="#94a3b8" stroke-width="1">
    <path d="M100 180H1500M100 300H1500M100 420H1500M100 540H1500M100 660H1500"/>
    <path d="M220 100V800M380 100V800M540 100V800M700 100V800M860 100V800M1020 100V800M1180 100V800M1340 100V800"/>
  </g>

  <text x="800" y="112" text-anchor="middle" font-family="Cinzel, Georgia, serif" font-size="54" fill="url(#gold)" font-weight="900" letter-spacing="3">ELYRIA CERTIFIED EXECUTION</text>
  <text x="800" y="154" text-anchor="middle" font-family="Inter, Arial, sans-serif" font-size="18" fill="#bae6fd" letter-spacing="2">CONSEQUENCE-BEARING AI EXECUTION CERTIFICATION</text>
  <text x="800" y="182" text-anchor="middle" font-family="Inter, Arial, sans-serif" font-size="15" fill="#94a3b8">Protected Public Proof Surface · Elyria Systems — VA · Samantha Revita + Terry Snyder</text>

  <circle cx="800" cy="455" r="255" fill="url(#seal)" opacity="0.92"/>
  <circle cx="800" cy="455" r="212" stroke="url(#gold)" stroke-width="3" opacity="0.95" filter="url(#glow)"/>
  <circle cx="800" cy="455" r="172" stroke="#38bdf8" stroke-width="2" opacity="0.7"/>
  <circle cx="800" cy="455" r="126" stroke="#a78bfa" stroke-width="2" opacity="0.65"/>
  <circle cx="800" cy="455" r="78" stroke="url(#gold)" stroke-width="2" opacity="0.9"/>

  <g stroke="url(#blue)" stroke-width="2" opacity="0.9" filter="url(#glow)">
    <path d="M800 243 C940 330 940 580 800 667 C660 580 660 330 800 243Z"/>
    <path d="M588 455 C675 315 925 315 1012 455 C925 595 675 595 588 455Z"/>
    <path d="M650 305 C830 280 970 445 905 610 C725 635 585 470 650 305Z" opacity="0.7"/>
    <path d="M950 305 C770 280 630 445 695 610 C875 635 1015 470 950 305Z" opacity="0.7"/>
  </g>

  <g filter="url(#hardGlow)">
    <circle cx="800" cy="455" r="34" fill="#fbbf24" opacity="0.95"/>
    <circle cx="800" cy="455" r="16" fill="#fef3c7"/>
  </g>

  <g font-family="Inter, Arial, sans-serif" font-size="15" font-weight="800">
    <g transform="translate(270 284)">
      <rect width="260" height="72" rx="18" fill="#020617" stroke="#22d3ee" stroke-width="2"/>
      <text x="130" y="30" text-anchor="middle" fill="#e0f2fe">STANDING PROOF</text>
      <text x="130" y="53" text-anchor="middle" fill="#7dd3fc" font-size="12">bind-time admissibility</text>
    </g>
    <g transform="translate(1070 284)">
      <rect width="260" height="72" rx="18" fill="#020617" stroke="#34d399" stroke-width="2"/>
      <text x="130" y="30" text-anchor="middle" fill="#dcfce7">AUTHORITY PROOF</text>
      <text x="130" y="53" text-anchor="middle" fill="#86efac" font-size="12">current lawful authority</text>
    </g>
    <g transform="translate(210 520)">
      <rect width="300" height="72" rx="18" fill="#020617" stroke="#a78bfa" stroke-width="2"/>
      <text x="150" y="30" text-anchor="middle" fill="#ede9fe">CORRIDOR PROOF</text>
      <text x="150" y="53" text-anchor="middle" fill="#c4b5fd" font-size="12">transfer relation standing</text>
    </g>
    <g transform="translate(1090 520)">
      <rect width="300" height="72" rx="18" fill="#020617" stroke="#fbbf24" stroke-width="2"/>
      <text x="150" y="30" text-anchor="middle" fill="#fef3c7">RECEIPT / REPLAY</text>
      <text x="150" y="53" text-anchor="middle" fill="#fde68a" font-size="12">deterministic verification</text>
    </g>
    <g transform="translate(650 675)">
      <rect width="300" height="72" rx="18" fill="#020617" stroke="#fb7185" stroke-width="2"/>
      <text x="150" y="30" text-anchor="middle" fill="#ffe4e6">FAIL-CLOSED</text>
      <text x="150" y="53" text-anchor="middle" fill="#fda4af" font-size="12">refuse / halt / rebound</text>
    </g>
  </g>

  <g stroke="#64748b" stroke-width="1.5" opacity="0.75">
    <path d="M530 320 C620 315 690 365 740 420"/>
    <path d="M1070 320 C980 315 910 365 860 420"/>
    <path d="M510 556 C610 550 675 510 740 480"/>
    <path d="M1090 556 C990 550 925 510 860 480"/>
    <path d="M800 611 V675"/>
  </g>

  <rect x="155" y="755" width="1290" height="58" rx="18" fill="#020617" stroke="#334155" stroke-width="2" opacity="0.92"/>
  <text x="800" y="792" text-anchor="middle" font-family="Georgia, serif" font-size="24" fill="#fef3c7">CertifiedExecution = Standing ∧ Authority ∧ Corridor ∧ Receipt ∧ Replay ∧ FailClosed</text>
  <text x="800" y="842" text-anchor="middle" font-family="Inter, Arial, sans-serif" font-size="13" fill="#64748b">Public-safe certification surface only. Protected methods, private law bundles, deployment internals, and customer reports are excluded.</text>
</svg>
